<svg xmlns="http://www.w3.org/2000/svg" viewBox="0 0 512 415.89"><defs><style>.cls-1{fill:#fff;}</style></defs><title>twitter</title><g id="Layer_2" data-name="Layer 2"><g id="Capa_1" data-name="Capa 1"><path class="cls-1" d="M512,49.21a209.75,209.75,0,0,1-60.31,16.54A105.47,105.47,0,0,0,497.86,7.68a211.74,211.74,0,0,1-66.74,25.5,105.11,105.11,0,0,0-179,95.76A298.19,298.19,0,0,1,35.67,19.2a105.15,105.15,0,0,0,32.51,140.2A105,105,0,0,1,20.6,146.21v1.31a105.14,105.14,0,0,0,84.24,103,106.39,106.39,0,0,1-27.67,3.68,100.81,100.81,0,0,1-19.77-2,105.09,105.09,0,0,0,98.09,72.95A210.73,210.73,0,0,1,25.05,370.07,223.22,223.22,0,0,1,0,368.63a296.89,296.89,0,0,0,161,47.26c193.21,0,298.82-160,298.82-298.82l-.35-13.6A209.74,209.74,0,0,0,512,49.21Z"/></g></g></svg>